<?xml version="1.0" encoding="utf-8"?>
<!-- Generator: Adobe Illustrator 27.5.0, SVG Export Plug-In . SVG Version: 6.00 Build 0)  -->
<svg version="1.1" id="Layer_1" xmlns="http://www.w3.org/2000/svg" xmlns:xlink="http://www.w3.org/1999/xlink" x="0px" y="0px"
	 viewBox="0 0 612 978.8" enable-background="new 0 0 612 978.8" xml:space="preserve">
<g>
	<g>
		<linearGradient id="SVGID_1_" gradientUnits="userSpaceOnUse" x1="107.9578" y1="147.5764" x2="292.044" y2="137.8143">
			<stop  offset="0.1918" style="stop-color:#373738"/>
			<stop  offset="0.5902" style="stop-color:#333334"/>
			<stop  offset="1" style="stop-color:#2F2F30"/>
		</linearGradient>
		<path fill="url(#SVGID_1_)" d="M192.5,75.8c0,0-4.1,1.3-9.8,9.6c-5.8,8.3-49.3,94.5-49.3,94.5s18.8,27,66.2,30.2l6.5-21.3
			C206,188.8,203.8,99.2,192.5,75.8z"/>
	</g>
	<g>
		
			<linearGradient id="SVGID_00000001646021796221401500000001771921845349359488_" gradientUnits="userSpaceOnUse" x1="-380.6601" y1="147.5765" x2="-196.5733" y2="137.8143" gradientTransform="matrix(-1 0 0 1 120.6279 0)">
			<stop  offset="0.1918" style="stop-color:#373738"/>
			<stop  offset="0.5902" style="stop-color:#333334"/>
			<stop  offset="1" style="stop-color:#2F2F30"/>
		</linearGradient>
		<path fill="url(#SVGID_00000001646021796221401500000001771921845349359488_)" d="M416.7,75.8c0,0,4.1,1.3,9.8,9.6
			c5.8,8.3,49.3,94.5,49.3,94.5s-18.8,27-66.2,30.2l-6.5-21.3C403.2,188.8,405.5,99.2,416.7,75.8z"/>
	</g>
	
		<linearGradient id="SVGID_00000047049764012014022000000017114064024557042088_" gradientUnits="userSpaceOnUse" x1="299.4183" y1="-38.9129" x2="309.1805" y2="480.5603">
		<stop  offset="0" style="stop-color:#2F2F30"/>
		<stop  offset="0.1037" style="stop-color:#333334"/>
		<stop  offset="0.2732" style="stop-color:#373738"/>
		<stop  offset="0.7762" style="stop-color:#373738"/>
		<stop  offset="1" style="stop-color:#333334"/>
	</linearGradient>
	<path fill="url(#SVGID_00000047049764012014022000000017114064024557042088_)" d="M416.6,75.5L342,44.8c0,0-12.6,9.9-37.4,9.1
		c-24.8,0.9-37.6-9.1-37.6-9.1l-74.5,30.7c0,0,13,100.4,13,151.5s-13,163.9-13,163.9c53.2,13.5,112,13.7,112,13.7s58.8-0.2,112-13.7
		c0,0-13-112.7-13-163.9S416.6,75.5,416.6,75.5z"/>
	
		<linearGradient id="SVGID_00000044863783399187168660000015828915411076802970_" gradientUnits="userSpaceOnUse" x1="173.4113" y1="402.9821" x2="432.8543" y2="402.9821">
		<stop  offset="0" style="stop-color:#2F2F30"/>
		<stop  offset="0.1037" style="stop-color:#333334"/>
		<stop  offset="0.2724" style="stop-color:#393A3B"/>
		<stop  offset="0.724" style="stop-color:#393A3B"/>
		<stop  offset="0.914" style="stop-color:#333334"/>
		<stop  offset="1" style="stop-color:#2F2F30"/>
	</linearGradient>
	<path fill="url(#SVGID_00000044863783399187168660000015828915411076802970_)" d="M323.7,403.9c4.7-0.4,10.2-0.8,15.9-1.5
		c-0.2-0.2-0.5-0.4-0.9-0.3C333.7,403,328.7,403.5,323.7,403.9z"/>
	
		<linearGradient id="SVGID_00000177471173383680367660000003658332563391580563_" gradientUnits="userSpaceOnUse" x1="302.0689" y1="85.5563" x2="305.9038" y2="26.9879">
		<stop  offset="0.1918" style="stop-color:#373738"/>
		<stop  offset="0.5902" style="stop-color:#333334"/>
		<stop  offset="1" style="stop-color:#2F2F30"/>
	</linearGradient>
	<path fill="url(#SVGID_00000177471173383680367660000003658332563391580563_)" d="M342.2,44.4c0,0-6.1,31.1-37.7,31.8
		c-31.5-0.7-37.7-31.8-37.7-31.8l-8.9,3.5c8.5,39.4,46.5,37.1,46.5,37.1s38,2.3,46.5-37.1L342.2,44.4z"/>
	
		<radialGradient id="SVGID_00000039120764221393969350000015819349667986873226_" cx="304.3013" cy="23.0739" r="54.6238" gradientUnits="userSpaceOnUse">
		<stop  offset="0.5149" style="stop-color:#393A3B"/>
		<stop  offset="0.8681" style="stop-color:#333334"/>
		<stop  offset="1" style="stop-color:#2F2F30"/>
	</radialGradient>
	<path fill="url(#SVGID_00000039120764221393969350000015819349667986873226_)" d="M342,44.8c0,0-12.6,9.9-37.4,9.1
		c-24.8,0.9-37.6-9.1-37.6-9.1l-0.1,0c0.9,3.7,8.2,30.7,37.6,31.4C333.9,75.5,341.2,48.6,342,44.8L342,44.8z"/>
	<path opacity="0.3" fill="#2F2F30" d="M258,47.9c0.4,1.3,0.7,2.6,1.1,3.9c0.5,1.3,0.8,2.6,1.3,3.8c0.5,1.3,1,2.5,1.6,3.7
		c0.6,1.2,1.2,2.4,1.9,3.6c0.7,1.1,1.4,2.3,2.2,3.4l1.2,1.6l1.3,1.5c0.4,0.5,0.9,1,1.4,1.5c0.5,0.5,0.9,1,1.4,1.4l1.5,1.3l1.6,1.2
		c1.1,0.8,2.2,1.6,3.3,2.3c1.1,0.7,2.3,1.4,3.5,2c1.2,0.6,2.4,1.1,3.6,1.7c1.2,0.5,2.5,0.9,3.8,1.3c2.6,0.8,5.2,1.4,7.8,1.7
		c1.3,0.2,2.7,0.3,4,0.4c1.3,0.1,2.7,0.1,4,0.1h0h0c1.3,0.1,2.6,0,4-0.1c1.3-0.1,2.7-0.2,4-0.4c2.6-0.4,5.3-1,7.8-1.7
		c1.3-0.4,2.5-0.8,3.8-1.3c1.2-0.5,2.5-1,3.6-1.7c1.2-0.6,2.4-1.3,3.5-2c1.1-0.7,2.2-1.5,3.3-2.3l1.6-1.2l1.5-1.3
		c0.5-0.4,1-0.9,1.4-1.4c0.5-0.5,0.9-1,1.4-1.5l1.3-1.5l1.2-1.6c0.8-1.1,1.5-2.2,2.2-3.4c0.7-1.2,1.4-2.3,1.9-3.6
		c0.6-1.2,1.1-2.5,1.6-3.7c0.5-1.2,0.9-2.5,1.3-3.8c0.4-1.3,0.7-2.6,1.1-3.9c-0.3,1.3-0.6,2.7-0.9,4c-0.4,1.3-0.7,2.6-1.2,3.9
		c-0.5,1.3-0.9,2.6-1.5,3.8c-0.5,1.3-1.2,2.5-1.8,3.7c-2.6,4.8-6.2,9.1-10.5,12.5c-1.1,0.8-2.2,1.7-3.3,2.4
		c-1.1,0.8-2.3,1.4-3.6,2.1c-1.2,0.6-2.5,1.2-3.7,1.7c-1.3,0.5-2.6,1-3.9,1.4c-2.6,0.8-5.3,1.4-8,1.9c-1.4,0.2-2.7,0.4-4.1,0.5
		c-1.4,0.1-2.7,0.2-4.1,0.1h0.1c-1.4,0-2.8,0-4.1-0.1c-1.4-0.1-2.7-0.3-4.1-0.5c-2.7-0.4-5.4-1-8-1.9c-1.3-0.4-2.6-0.9-3.9-1.4
		c-1.3-0.5-2.5-1.1-3.7-1.7c-1.2-0.6-2.4-1.3-3.6-2.1c-1.2-0.7-2.3-1.6-3.3-2.4c-4.3-3.4-7.8-7.7-10.5-12.5
		c-0.6-1.2-1.3-2.4-1.8-3.7c-0.6-1.2-1-2.5-1.5-3.8c-0.5-1.3-0.8-2.6-1.2-3.9C258.5,50.6,258.3,49.3,258,47.9z"/>
	<path opacity="0.3" fill="#2F2F30" d="M342.2,44.4c0,0-0.3,1.7-1.2,4.4c-0.9,2.8-2.4,6.7-5.2,10.9c-2.7,4.2-6.8,8.8-12.3,12
		c-2.7,1.6-5.8,2.9-9,3.7c-3.2,0.9-6.6,1.3-10,1.4c-3.4-0.1-6.8-0.6-10-1.4c-3.2-0.9-6.3-2.1-9-3.7c-5.5-3.2-9.6-7.8-12.3-11.9
		c-2.8-4.2-4.3-8.2-5.2-10.9c-0.9-2.8-1.1-4.4-1.1-4.4s0.4,1.6,1.4,4.3c1,2.7,2.8,6.5,5.6,10.6c1.4,2,3.1,4.1,5.2,6.1
		c2,2,4.4,3.7,7.1,5.3c2.7,1.5,5.6,2.7,8.7,3.5c3.1,0.8,6.4,1.2,9.6,1.3c3.3-0.1,6.6-0.5,9.7-1.3c3.1-0.8,6.1-2,8.7-3.5
		c2.7-1.5,5-3.3,7.1-5.3c2-2,3.7-4,5.2-6.1c2.8-4.1,4.6-7.9,5.6-10.6C341.8,46,342.2,44.4,342.2,44.4z"/>
	<path fill="#333334" d="M304.5,405.6L304.5,405.6c-0.6,0-59.5-0.4-112.2-13.7c-0.3-0.1-0.6-0.4-0.5-0.8c0.1-1.1,13-113.3,13-163.8
		c0-8-0.3-17.7-1-29l-3.6,11.9c-0.1,0.3-0.4,0.5-0.7,0.5c-47.2-3.1-66.6-30.2-66.8-30.5c-0.1-0.2-0.2-0.5-0.1-0.7
		c1.8-3.5,43.7-86.2,49.4-94.5c5.8-8.4,10-9.8,10.2-9.9l74.5-30.7c0.2-0.1,0.5-0.1,0.7,0.1c0.1,0.1,13,9.8,37.1,8.9
		c1.1,0,2.1,0.1,3.1,0.1c22.2,0,33.8-8.9,33.9-9c0.2-0.2,0.5-0.2,0.7-0.1l74.5,30.7c0.1,0,4.3,1.4,10.1,9.9
		c5.7,8.3,47.6,91,49.4,94.5c0.1,0.2,0.1,0.5-0.1,0.7c-0.2,0.3-19.6,27.3-66.8,30.5c-0.3,0-0.6-0.2-0.7-0.5l-3.6-11.9
		c-0.6,11.2-1,21-1,29c0,50.5,12.9,162.6,13,163.8c0,0.3-0.2,0.7-0.5,0.8C364,405.2,305.1,405.6,304.5,405.6z M193.3,390.7
		c52.3,13.1,110.5,13.5,111.3,13.5c0.7,0,59-0.4,111.3-13.5c-1-9-13-114.7-13-163.3c0-9,0.4-20,1.2-33c0-0.3,0.3-0.6,0.6-0.6
		c0.3,0,0.6,0.2,0.7,0.5l4.6,15.1c43.3-3,62.6-26.4,64.9-29.5c-3.2-6.3-43.6-86.1-49.1-94c-5.5-8-9.4-9.3-9.5-9.3l-74.2-30.5
		c-2.2,1.6-14.7,9.8-37.5,9c-1,0-2,0.1-3,0.1c-20.9,0-32.5-7.5-34.6-9l-74.2,30.5c-0.1,0-4,1.4-9.5,9.4c-5.5,7.9-45.9,87.7-49.1,94
		c2.3,3.1,21.6,26.4,64.9,29.5l4.6-15.1c0.1-0.3,0.4-0.5,0.7-0.5c0.3,0,0.6,0.3,0.6,0.6c0.8,12.9,1.2,24,1.2,33
		C206.2,276,194.3,381.7,193.3,390.7z"/>
</g>
<g>
	<g>
		<g>
			<path fill="#2F5E8D" d="M467.4,882.4c-0.5-4.5-1.1-9-1.8-13.4c-0.3-1.9-0.6-3.9-0.9-5.8c-0.5-3.8-1.1-7.6-1.7-11.4
				c-1.3-8.9-2.7-18.1-3.8-27.2c-1-8.2-1.9-16.5-2.7-24.6c-0.4-4.3-0.9-8.7-1.4-13l-1.3-12.5c-1.4-12.7-2.7-25.8-4.3-38.6
				c-0.3-2.9-0.7-5.8-1-8.6c-1.4-12.2-2.9-24.9-5-37.2c-4.7-27.1-7.5-54.3-8.1-80.8c-0.4-14.7-1.6-29.6-2.9-44l-0.1-0.8
				c-0.9-10.8-2.3-21.7-3.6-32.3l-0.4-3.6c-1.9-15.3-3.7-29-5.5-41.8c-0.5-3.5-1.1-7-1.7-10.4c-0.8-4.4-1.6-8.9-2.1-13.3
				c-0.3-2.6-0.8-5.2-1.3-7.7c-1.1-5.3-2.1-10.3-1.2-15.7c0.6-3.7-0.7-7.6-1.9-11.3c-0.4-1.4-0.9-2.7-1.2-4.1
				c-0.4-1.6-1.1-2.6-2.2-3.2c-1.1-0.5-2.3-0.5-3.8-0.1c-2,0.6-4.2,0.9-6.4,1.2l-0.5,0.1c-20.6,2.9-43.3,4.3-69.3,4.5
				c-23.9,0.1-45.8-0.1-67.2-0.6c-20.5-0.5-37.4-2.2-53.2-5.1c-4.3-0.8-5.7,0-6.6,3.8c-1,4-1.9,8.3-3,13.6c-0.2,0.9-0.1,1.8,0,2.6
				l0,0.3c0.1,0.6,0.2,1.1,0.3,1.7c0.2,0.9,0.4,1.8,0.3,2.5c-0.8,4.7-1.6,9.3-2.5,14c-1.4,7.9-2.9,16.1-4,24.3
				c-3.8,30-7.5,59.4-10.4,88.9c-1.2,12.2-1.7,24.7-2.3,36.8c-0.3,6.6-0.6,13.2-1,19.8l-0.1,1.7c-0.5,8.1-1,16.5-2.1,24.7
				c-1.2,9.2-2.6,18.5-4,27.6c-1.6,11-3.3,22.4-4.8,33.6c-1.8,14.7-3.5,29.6-5.1,44.1c-1.2,11.2-2.5,22.5-3.8,33.7
				c-1.1,9.1-2.3,18.2-3.5,27.3c-1.6,11.9-3.2,24.2-4.5,36.3c-0.3,3.2-0.9,6.4-1.5,9.5c-1.2,6.7-2.4,13.6-1.6,20.7
				c0.3,2.4,1.1,5.8,5.4,7.3c2.1,0.7,4.2,1.3,6.3,1.8c1.8,0.5,3.6,0.9,5.3,1.5c19.5,6.3,38.9,3.5,55.6,0.4c1.3-0.2,3.4-1.4,3.7-2.8
				c0.6-3.1,1.2-6.4,1.7-9.5c0.3-2,0.6-4,1-5.9c1.1-6.3,2.2-12.7,3.3-19c2.4-14.3,4.9-29.1,8.1-43.5c9.9-44.9,20.6-90.5,30.8-134.6
				l4-17.3c7.8-33.4,16.1-68.6,26.3-110.8c1.4-5.7,3.1-11.4,4.8-16.9c0.5-1.8,1.1-3.6,1.6-5.4c1.7,5.9,3.3,11.9,5,17.8
				c3.9,13.5,7.8,27.5,11.2,41.3c7.3,29.9,14.3,60.3,21.1,89.8l2.8,12.1c2.8,12.3,5.5,24.5,8.2,36.8c3,13.7,6.2,27.9,9.4,41.8
				c9.5,40.9,18.5,81.1,23.9,122.3c0.2,1.8,0.9,3.7,4.1,4c3.2,0.4,6.4,0.8,9.6,1.2c6.1,0.8,12.4,1.5,18.7,2.2c1.3,0.1,2.7,0.2,4,0.2
				c6.7,0,13.1-1.6,19.4-3.1c1.9-0.5,3.8-0.9,5.6-1.3c3.3-0.7,6.7-1.6,9.9-2.9c1.8-0.8,4.1-2.5,4.7-4.5
				C467.4,888.6,467.7,885.4,467.4,882.4z"/>
			<g>
				<path fill="#2F5E8D" d="M462.9,879.4c-0.1-0.5-0.1-0.9-0.2-1.4c-0.7-5.8-1.7-11.6-2.4-17.5c-2.8-21.6-5.7-43.2-8.2-64.7
					c-2.3-19.5-4-39.1-6.4-58.6c-2.4-20.3-5-40.5-7.9-60.7c-3.3-23-5.2-46.1-6.3-69.3c-0.8-16.7-1.5-33.5-3.4-50.1
					c-2.9-26.1-6.6-52.2-10-78.2c-0.2-1.7-0.3-3.6-1.3-5c-1.8-2.6-4-5-6.2-7.3c-5.8-6.2-11.7-12.3-17.6-18.4c-0.5-0.5-1.4-1.3-2-1.2
					c-5.1,0.5-10.2,1.2-15.6,1.9c0.3,1.5,0.5,2.6,0.7,3.7c3.1,16.1,6.5,32.2,9.2,48.3c3.4,20,6.4,40,9.4,60
					c2.2,14.4,4.1,28.8,6.1,43.2c1.7,12.1,2.9,24.3,4.9,36.4c3.4,20.7,6.8,41.5,7.1,62.5c0.5,27.8,1.2,55.6,5.3,83.2
					c1,6.4,1.9,12.9,3,19.3c1.4,8.8,2.9,17.6,4.5,26.4c2.5,13.7,5.7,27.4,8.1,41.2c1.5,8.3,2.2,16.8,3.3,25.6
					c7.2-1.7,14.3-3.4,21.2-5.1c0.9-0.2,2-0.6,2.5-1.2c1-1,2.1-2.3,2.2-3.5C463.4,885.7,463.3,882.5,462.9,879.4z M386,469.4
					c-1.8-1.5-3.3-7.8-2.6-11.8C385.4,459.7,387,467.4,386,469.4z M395.6,518.9c-0.6-1.1-1.2-1.7-1.3-2.4
					c-2.2-12.3-4.2-24.5-6.3-36.8c-0.1-0.5,0.1-1.1,0.3-2.2C390.7,481.1,396.9,515.5,395.6,518.9z"/>
				<path fill="#2F5E8D" d="M227,447c-0.6-0.1-1.4,0.4-1.8,0.8c-7,7.4-14.1,14.7-21,22.2c-1.5,1.6-3.1,3.5-3.7,5.6
					c-1.1,3.9-1.5,7.9-2,12c-2,15.6-3.7,31.2-6,46.7c-3.5,24.3-4.6,48.7-6.2,73.1c-1,16.1-1.7,32.3-3.5,48.4
					c-2.9,25.7-6.9,51.4-10.1,77.1c-2.6,21.2-4.5,42.5-6.9,63.7c-1.9,16.6-4.1,33.2-6.2,49.9c-1.2,9.8-2.4,19.6-3.6,29.4
					c-0.5,3.6-0.9,7.3-1.3,11c-0.5,4.5,0.4,5.7,5.2,7c4.7,1.3,9.5,2.3,14.3,3.4c2.2,0.5,4.4,1,6.8,1.5c0.1-1.1,0.2-1.7,0.2-2.4
					c1.1-9.4,2-18.8,3.5-28.1c3.8-22.8,10.3-45.2,13.3-68.1c0.3-2.2,0.6-4.4,0.8-6.7c1.4-14.4,3.6-28.7,4.5-43.1
					c1-15.3,0.6-30.6,1.6-45.9c0.9-15.1,2.5-30.1,4.3-45.1c1.4-11.8,3.7-23.4,5.3-35.2c1.3-9.3,2.1-18.8,3.4-28.1
					c2.8-19.5,5.6-39.1,8.6-58.6c3.3-21.1,6.9-42.2,10.6-63.3c1.4-8.3,3.4-16.6,5.2-25.2C237.1,448.2,232.1,447.5,227,447z
					 M223.2,518.5c-0.6-0.1-1.2-0.2-1.8-0.3c1.9-13.4,4.3-26.8,7.2-40.1c0.5,0.1,1,0.1,1.5,0.2C227.8,491.7,225.5,505.1,223.2,518.5
					z M232.1,469.5c-1.1-1.9,0.3-9.6,2.2-11.6C235.5,460.4,234.1,467.6,232.1,469.5z"/>
				<path fill="#2F5E8D" d="M331.8,449.6v-19c26-0.9,52-1.3,77.8-6.4c1,4.8,2.1,9.6,2.7,14.4c0.1,0.8-1.4,2.4-2.4,2.7
					c-6.3,1.4-12.6,3-19,3.6c-18.1,1.8-36.2,3.2-54.4,4.7C335.1,449.7,333.6,449.6,331.8,449.6"/>
				<path fill="#2F5E8D" d="M286,449.8c-8.6-0.5-16.8-0.6-24.9-1.4c-15.9-1.7-31.8-3.3-47.5-5.8c-10.8-1.7-8.3-1.9-6.9-9.5
					c0.5-2.9,1.1-5.8,1.7-8.9c25.6,4.9,51.5,5.5,77.7,6.3V449.8z"/>
				<path fill="#2F5E8D" d="M312.2,452.4v52.2c-9.1-4.8-13.1-10.2-12.3-17.6c1.1-9.6,0.4-19.4,0.4-29.1c0-1.8,0-3.6,0-5.6H312.2z"/>
				<rect x="294.5" y="430.7" fill="#2F5E8D" width="28.8" height="19.1"/>
				<path fill="#2F5E8D" d="M394.7,446.8c6.5-1.4,11.9-2.6,17.7-3.9c0.7,4.2,1.3,8.4,2,12.6c0.7,4.2,1.4,8.3,2,12.5
					c-0.2,0.1-0.5,0.3-0.7,0.4C408.8,461.3,401.9,454.2,394.7,446.8"/>
				<path fill="#2F5E8D" d="M205.6,442.9c5.8,1.3,11.3,2.5,17.6,3.9c-7.1,7.3-14,14.4-20.9,21.6c-0.3-0.1-0.5-0.2-0.8-0.3
					c0.7-4.2,1.4-8.4,2-12.6C204.3,451.4,204.9,447.2,205.6,442.9"/>
				<path fill="#2F5E8D" d="M326.2,430.7h2.5c0.2,0.3,0.4,0.5,0.4,0.8c0,5.5,0.1,10.9,0,16.4c0,0.8-1.2,1.5-1.8,2.2
					c-0.3-0.2-0.7-0.3-1-0.5V430.7z"/>
				<path fill="#2F5E8D" d="M288.8,430.8c0.8-0.1,1.2-0.2,1.6-0.2c0.4,0,0.8,0.1,1.4,0.1v18.8c-1.6,0.4-3.1,0.8-3.1-1.4
					C288.8,442.3,288.8,436.7,288.8,430.8"/>
				<path fill="#102440" d="M467.4,882.4c-0.5-4.5-1.1-9-1.8-13.4c-0.3-1.9-0.6-3.9-0.9-5.8c-0.5-3.8-1.1-7.6-1.7-11.4
					c-1.3-8.9-2.7-18.1-3.8-27.2c-1-8.2-1.9-16.5-2.7-24.6c-0.4-4.3-0.9-8.7-1.4-13l-1.3-12.5c-1.4-12.7-2.7-25.8-4.3-38.6
					c-0.3-2.9-0.7-5.8-1-8.6c-1.4-12.2-2.9-24.9-5-37.2c-4.7-27.1-7.5-54.3-8.1-80.8c-0.4-14.7-1.6-29.6-2.9-44l-0.1-0.8
					c-0.9-10.8-2.3-21.7-3.6-32.3l-0.4-3.6c-1.9-15.3-3.7-29-5.5-41.8c-0.5-3.5-1.1-7-1.7-10.4c-0.8-4.4-1.6-8.9-2.1-13.3
					c-0.3-2.6-0.8-5.2-1.3-7.7c-1.1-5.3-2.1-10.3-1.2-15.7c0.6-3.7-0.7-7.6-1.9-11.3c-0.4-1.4-0.9-2.7-1.2-4.1
					c-0.4-1.6-1.1-2.6-2.2-3.2c-1.1-0.5-2.3-0.5-3.8-0.1c-2,0.6-4.2,0.9-6.4,1.2l-0.5,0.1c-20.6,2.9-43.3,4.3-69.3,4.5
					c-23.9,0.1-45.8-0.1-67.2-0.6c-20.5-0.5-37.4-2.2-53.2-5.1c-4.3-0.8-5.7,0-6.6,3.8c-1,4-1.9,8.3-3,13.6c-0.2,0.9-0.1,1.8,0,2.6
					l0,0.3c0.1,0.6,0.2,1.1,0.3,1.7c0.2,0.9,0.4,1.8,0.3,2.5c-0.8,4.7-1.6,9.3-2.5,14c-1.4,7.9-2.9,16.1-4,24.3
					c-3.8,30-7.5,59.4-10.4,88.9c-1.2,12.2-1.7,24.7-2.3,36.8c-0.3,6.6-0.6,13.2-1,19.8l-0.1,1.7c-0.5,8.1-1,16.5-2.1,24.7
					c-1.2,9.2-2.6,18.5-4,27.6c-1.6,11-3.3,22.4-4.8,33.6c-1.8,14.7-3.5,29.6-5.1,44.1c-1.2,11.2-2.5,22.5-3.8,33.7
					c-1.1,9.1-2.3,18.2-3.5,27.3c-1.6,11.9-3.2,24.2-4.5,36.3c-0.3,3.2-0.9,6.4-1.5,9.5c-1.2,6.7-2.4,13.6-1.6,20.7
					c0.3,2.4,1.1,5.8,5.4,7.3c2.1,0.7,4.2,1.3,6.3,1.8c1.8,0.5,3.6,0.9,5.3,1.5c19.5,6.3,38.9,3.5,55.6,0.4c1.3-0.2,3.4-1.4,3.7-2.8
					c0.6-3.1,1.2-6.4,1.7-9.5c0.3-2,0.6-4,1-5.9c1.1-6.3,2.2-12.7,3.3-19c2.4-14.3,4.9-29.1,8.1-43.5c9.9-44.9,20.6-90.5,30.8-134.6
					l4-17.3c7.8-33.4,16.1-68.6,26.3-110.8c1.4-5.7,3.1-11.4,4.8-16.9c0.5-1.8,1.1-3.6,1.6-5.4c1.7,5.9,3.3,11.9,5,17.8
					c3.9,13.5,7.8,27.5,11.2,41.3c7.3,29.9,14.3,60.3,21.1,89.8l2.8,12.1c2.8,12.3,5.5,24.5,8.2,36.8c3,13.7,6.2,27.9,9.4,41.8
					c9.5,40.9,18.5,81.1,23.9,122.3c0.2,1.8,0.9,3.7,4.1,4c3.2,0.4,6.4,0.8,9.6,1.2c6.1,0.8,12.4,1.5,18.7,2.2
					c1.3,0.1,2.7,0.2,4,0.2c6.7,0,13.1-1.6,19.4-3.1c1.9-0.5,3.8-0.9,5.6-1.3c3.3-0.7,6.7-1.6,9.9-2.9c1.8-0.8,4.1-2.5,4.7-4.5
					C467.4,888.6,467.7,885.4,467.4,882.4z M414.4,455.5c0.7,4.2,1.4,8.3,2,12.5c-0.2,0.1-0.5,0.3-0.7,0.4
					c-6.9-7.1-13.8-14.2-21-21.6c6.5-1.4,11.9-2.7,17.7-3.9C413,447.1,413.7,451.3,414.4,455.5z M409.9,441.2
					c-6.3,1.4-12.6,3-19,3.6c-18.1,1.8-36.2,3.2-54.4,4.7c-1.5,0.1-2.9,0-4.7,0v-19c26-0.9,52-1.3,77.8-6.4c1,4.8,2.1,9.6,2.7,14.4
					C412.4,439.4,410.9,441,409.9,441.2z M391.1,447c0.6-0.1,1.5,0.6,2,1.2c5.9,6.1,11.8,12.2,17.5,18.4c2.2,2.3,4.4,4.7,6.2,7.3
					c0.9,1.4,1.1,3.3,1.3,5c3.4,26.1,7.2,52.1,10,78.2c1.8,16.6,2.6,33.4,3.4,50.1c1.1,23.2,3,46.3,6.3,69.3
					c2.9,20.2,5.5,40.5,7.9,60.7c2.3,19.5,4,39.1,6.3,58.6c2.6,21.6,5.5,43.2,8.2,64.8c0.8,6.3,1.9,12.6,2.6,18.9
					c0.4,3.1,0.5,6.3,0.2,9.5c-0.1,1.2-1.3,2.5-2.2,3.5c-0.6,0.6-1.6,1-2.5,1.2c-7,1.7-14,3.4-21.2,5.1c-1.1-8.8-1.8-17.3-3.3-25.6
					c-2.5-13.8-5.7-27.4-8.1-41.2c-2.7-15.2-5.2-30.4-7.5-45.6c-4.1-27.6-4.9-55.4-5.3-83.2c-0.3-21-3.7-41.8-7.1-62.5
					c-2-12.1-3.2-24.2-4.9-36.4c-2-14.4-3.9-28.8-6.1-43.2c-3-20-6-40-9.4-60c-2.8-16.1-6.1-32.2-9.2-48.3c-0.2-1.1-0.4-2.2-0.7-3.7
					C380.9,448.2,386,447.5,391.1,447z M329,447.8c0,0.8-1.2,1.5-1.8,2.2c-0.3-0.2-0.7-0.3-1-0.5v-18.9h2.5c0.2,0.3,0.4,0.5,0.4,0.8
					C329.1,436.9,329.2,442.4,329,447.8z M300.3,458c0-1.8,0-3.6,0-5.6h11.9v52.2c-9.1-4.8-13.1-10.2-12.3-17.6
					C301,477.5,300.3,467.7,300.3,458z M294.5,449.8v-19.1h28.8v19.1H294.5z M291.9,430.7v18.8c-1.6,0.4-3.1,0.8-3.1-1.4
					c0-5.7,0-11.3,0-17.2c0.8-0.1,1.2-0.2,1.6-0.2C290.9,430.6,291.3,430.6,291.9,430.7z M154.8,886.7c1.5-13.5,3.2-26.9,4.9-40.4
					c2.1-16.6,4.3-33.2,6.2-49.9c2.4-21.2,4.3-42.5,6.9-63.7c3.1-25.7,7.1-51.3,10.1-77.1c1.8-16.1,2.5-32.2,3.5-48.4
					c1.6-24.4,2.7-48.8,6.2-73.1c2.3-15.5,4-31.1,6-46.7c0.5-4,1-8.1,2-12c0.5-2,2.1-3.9,3.7-5.6c6.9-7.5,13.9-14.8,21-22.2
					c0.4-0.4,1.3-0.9,1.9-0.8c5,0.6,10.1,1.2,15.4,1.9c-1.8,8.6-3.7,16.8-5.2,25.2c-3.7,21.1-7.3,42.2-10.6,63.3
					c-3.1,19.5-5.9,39.1-8.6,58.6c-1.3,9.3-2.1,18.8-3.4,28.1c-1.6,11.7-3.9,23.4-5.3,35.1c-1.8,15-3.3,30-4.3,45.1
					c-0.9,15.3-0.6,30.6-1.6,45.9c-1,14.4-3.2,28.7-4.6,43.1c-2.5,25.3-9.8,49.8-14,74.8c-1.6,9.3-2.4,18.7-3.5,28.1
					c-0.1,0.7-0.1,1.3-0.2,2.4c-2.4-0.5-4.6-1-6.8-1.5c-4.8-1.1-9.6-2-14.2-3.4C155.2,892.3,154.3,891.1,154.8,886.7z M205.6,442.9
					c5.8,1.3,11.3,2.5,17.6,3.9c-7.1,7.3-14,14.4-20.9,21.6c-0.3-0.1-0.5-0.2-0.8-0.3c0.7-4.2,1.4-8.4,2-12.6
					C204.3,451.4,204.9,447.2,205.6,442.9z M213.6,442.6c-10.8-1.7-8.3-1.9-6.9-9.5c0.5-2.9,1.1-5.8,1.7-8.9
					c25.6,4.9,51.5,5.5,77.7,6.3v19.3c-8.6-0.5-16.8-0.6-24.9-1.4C245.2,446.7,229.3,445.1,213.6,442.6z M307.3,529.8l-0.2,0.6
					c-0.4,0.4-0.7,0.8-0.9,1.2c-3.2,9.9-6.7,19.7-9.1,29.7c-8.1,32.9-15.9,65.9-23.8,98.9c-5,21-10.2,41.9-15,62.9
					c-8.7,38.4-17.4,76.9-25.7,115.4c-3,14-4.6,28.2-6.7,42.2c-0.5,3.5-0.9,7.1-1.5,10.6c-0.8,5.1-0.9,5-7.8,5.7
					c0.4-3.1,0.7-6.1,1.2-9c1.3-7.2,2.7-14.4,4-21.6c0.2-1.1,0-2.3,0-3.4c-0.4,0-0.8-0.1-1.1-0.1c-0.2,0.7-0.6,1.3-0.7,2
					c-1.9,10.2-3.8,20.5-5.5,30.7c-0.3,1.9-1,2.6-3.2,2c0.9-6.4,1.7-12.7,2.6-19.1c-0.3-0.1-0.6-0.2-0.9-0.3
					c-0.4,0.8-1.1,1.6-1.3,2.4c-0.9,4.7-1.8,9.5-2.5,14.2c-0.4,2.6-1.6,3.9-4.6,4c-5.9,0.1-11.7,0.6-17.6,0.6c-4,0-4.1-0.3-3.8-3.9
					c1.7-22.1,7.2-43.7,11.4-65.5c3.1-15.5,5.2-31.2,7.5-46.8c4.3-28.9,3.9-58,5.4-87c0.8-15.4,3.2-30.8,5.1-46.2
					c1.7-13.6,3.6-27.1,5.5-40.7c1.8-13.3,3.5-26.5,5.4-39.8c2.8-19.2,5.6-38.3,8.8-57.4c3.5-21,7.6-41.9,11.4-62.7
					c18.4,1,36.1,2,54.3,3c0,6.5,0.1,13.2,0,19.9c-0.2,5.6-0.5,11.2-1.2,16.7c-0.6,4.8,1.3,8.7,4.9,12c2.6,2.3,5.6,4.2,8.2,6.5
					c0.9,0.8,1.6,2.1,1.9,3.2c0.4,2.1,0.4,4.2,0.6,6.3l1.6,0.1c0.3-1.4,0.9-2.9,0.9-4.3c-0.1-17.8-0.3-35.6-0.5-53.4
					c0-2.2,0-4.4,0-6.8c19.7-1,39.3-2,59.5-3c3.4,18.2,7.1,36.7,10.2,55.2c3.4,20.1,6.5,40.3,9.4,60.6c2.9,20.5,5.2,41.1,8,61.6
					c1.7,12.7,4.3,25.3,5.7,38c1.7,16.1,3.3,32.2,3.6,48.3c0.4,26.2,2.6,52.2,5.7,78.3c2.5,20.9,7.5,41.3,11.4,62
					c2.6,14,4.4,28.2,6.6,42.2c0.4,2.7-0.7,3.8-3.5,3.7c-6.5-0.2-13-0.5-19.5-0.9c-1-0.1-2.4-1.3-2.6-2.2c-0.8-3.6-1.1-7.2-1.8-10.8
					c-0.5-2.4-1.2-4.8-1.9-7.3c-0.5,0.1-1,0.2-1.4,0.3c0.9,6.3,1.7,12.7,2.6,19.1c-2.1,0.5-2.9-0.1-3.2-2
					c-1.7-10.3-3.7-20.5-5.5-30.7c-0.1-0.7-0.5-1.3-0.7-2c-0.4,0-0.7,0.1-1.1,0.1c0,1.2-0.2,2.5,0,3.7c1.5,8.3,3,16.5,4.5,24.8
					c0.3,1.8,0.4,3.6,0.5,5.4c-6.4,0.1-7-0.6-7.9-6.6c-2.2-15.2-4-30.4-6.9-45.4c-3.5-18.3-7.7-36.4-11.8-54.6
					c-6.7-30.5-13.4-60.9-20.4-91.3c-7-30.1-14.1-60.2-21.5-90.2c-5.6-22.5-11.6-44.9-17.5-67.4c-0.9-3.3-2.1-6.5-3.4-9.6
					c-0.4-1-1.8-2.1-2.9-2.2c-0.3,0-0.7,0.2-1.1,0.5L307.3,529.8z"/>
				<path fill="#102440" d="M298.7,532.8c-9.6,10-19.3,19.9-28.9,29.9c-0.3-0.2-0.6-0.4-1-0.5c0.4-0.9,0.6-1.9,1.2-2.5
					c8.8-9,17.7-17.9,26.5-26.9c0.3-0.3,0.9-0.4,1.4-0.6L298.7,532.8z"/>
				<path fill="#102440" d="M320.3,531.9c10.3,9.4,20.7,18.7,29.1,29.7c-0.3,0.3-0.5,0.6-0.8,0.8c-0.8-0.5-1.9-0.8-2.5-1.4
					c-8.5-8.7-16.9-17.5-25.4-26.3c-0.6-0.6-1-1.4-1.5-2.1C319.6,532.5,319.9,532.2,320.3,531.9"/>
				<path fill="#102440" d="M320.1,525.6c6.9,2,13.7,4.1,20,7.3c-0.2,0.4-0.4,0.9-0.6,1.3c-6.7-2.4-13.3-4.8-20-7.2
					C319.7,526.6,319.9,526.1,320.1,525.6"/>
				<path fill="#102440" d="M278.5,534.3c1.2-3.1,16.5-8.6,20-7.3C291.8,529.5,285.1,531.9,278.5,534.3"/>
				<path fill="#102440" d="M223,855.9c-0.6-5.5,1.1-10.5,2.9-16.1C227.5,842.2,225.4,853.7,223,855.9"/>
				<path fill="#102440" d="M391.9,840.4c2,5,3.8,10.1,3.4,15.9C392.9,854.5,390.4,842.9,391.9,840.4"/>
				<path fill="#102440" d="M388.3,477.6c2.5,3.6,8.6,38,7.3,41.4c-0.6-1.1-1.2-1.7-1.3-2.4c-2.1-12.2-4.2-24.5-6.3-36.7
					C387.9,479.3,388.1,478.7,388.3,477.6"/>
				<path fill="#102440" d="M383.3,457.7c2.1,2,3.7,9.7,2.6,11.8C384.1,467.9,382.6,461.7,383.3,457.7"/>
				<path fill="#102440" d="M221.4,518.1c1.9-13.4,4.3-26.8,7.2-40.1c0.5,0.1,1,0.1,1.5,0.2c-2.3,13.4-4.6,26.8-6.9,40.2
					C222.6,518.3,222,518.2,221.4,518.1"/>
				<path fill="#102440" d="M232.1,469.5c-1.2-1.9,0.3-9.6,2.2-11.6C235.5,460.4,234.1,467.6,232.1,469.5"/>
			</g>
		</g>
	</g>
</g>
</svg>
