<?xml version="1.0" encoding="utf-8"?>
<!-- Generator: Adobe Illustrator 27.5.0, SVG Export Plug-In . SVG Version: 6.00 Build 0)  -->
<svg version="1.1" id="Layer_1" xmlns="http://www.w3.org/2000/svg" xmlns:xlink="http://www.w3.org/1999/xlink" x="0px" y="0px"
	 viewBox="0 0 170 254.5" style="enable-background:new 0 0 170 254.5;" xml:space="preserve">
<style type="text/css">
	.st0{fill:#2F5E8C;}
	.st1{fill:#102440;}
</style>
<g>
	<g>
		<g>
			<path class="st0" d="M158,236.9c-0.2-2.2-0.5-4.5-0.8-6.7c-0.1-1-0.3-1.9-0.4-2.9c-0.2-1.9-0.5-3.8-0.7-5.7
				c-0.6-4.4-1.2-9-1.7-13.6c-0.5-4.1-0.8-8.2-1.2-12.2c-0.2-2.2-0.4-4.3-0.6-6.5l-0.6-6.2c-0.6-6.3-1.2-12.8-1.9-19.2
				c-0.2-1.4-0.3-2.9-0.5-4.3c-0.6-6.1-1.3-12.4-2.3-18.5c-2.1-13.5-3.3-27-3.6-40.2c-0.2-7.3-0.7-14.7-1.3-21.9l0-0.4
				c-0.4-5.4-1-10.8-1.6-16.1l-0.2-1.8c-0.9-7.6-1.7-14.4-2.5-20.8c-0.2-1.7-0.5-3.5-0.8-5.2c-0.3-2.2-0.7-4.4-0.9-6.6
				c-0.1-1.3-0.4-2.6-0.6-3.8c-0.5-2.6-0.9-5.1-0.6-7.8c0.3-1.8-0.3-3.8-0.8-5.6c-0.2-0.7-0.4-1.4-0.5-2c-0.2-0.8-0.5-1.3-1-1.6
				c-0.5-0.3-1.1-0.3-1.7,0c-0.9,0.3-1.9,0.5-2.9,0.6L128,8c-9.2,1.4-19.4,2.2-31.1,2.2c-10.7,0.1-20.6,0-30.2-0.3
				c-9.2-0.3-16.8-1.1-23.9-2.5c-1.9-0.4-2.6,0-3,1.9c-0.4,2-0.9,4.1-1.4,6.8c-0.1,0.4,0,0.9,0,1.3l0,0.2c0,0.3,0.1,0.6,0.1,0.9
				c0.1,0.5,0.2,0.9,0.1,1.3c-0.3,2.3-0.7,4.6-1.1,7c-0.6,3.9-1.3,8-1.8,12.1c-1.7,14.9-3.4,29.6-4.7,44.3c-0.5,6.1-0.8,12.3-1,18.3
				c-0.1,3.3-0.3,6.6-0.4,9.8l0,0.9c-0.2,4-0.4,8.2-0.9,12.3c-0.5,4.6-1.2,9.2-1.8,13.7c-0.7,5.5-1.5,11.2-2.1,16.7
				c-0.8,7.3-1.6,14.7-2.3,21.9c-0.6,5.6-1.1,11.2-1.7,16.8c-0.5,4.5-1,9.1-1.6,13.6c-0.7,5.9-1.4,12-2,18.1
				c-0.2,1.6-0.4,3.2-0.7,4.7c-0.5,3.3-1.1,6.8-0.7,10.3c0.1,1.2,0.5,2.9,2.4,3.6c0.9,0.4,1.9,0.6,2.8,0.9c0.8,0.2,1.6,0.5,2.4,0.7
				c8.7,3.1,17.5,1.7,25,0.2c0.6-0.1,1.5-0.7,1.7-1.4c0.3-1.6,0.5-3.2,0.7-4.7c0.1-1,0.3-2,0.4-3c0.5-3.1,1-6.3,1.5-9.5
				c1.1-7.1,2.2-14.5,3.6-21.7c4.5-22.4,9.2-45,13.8-67l1.8-8.6c3.5-16.6,7.2-34.1,11.8-55.2c0.6-2.8,1.4-5.7,2.2-8.4
				c0.2-0.9,0.5-1.8,0.7-2.7c0.7,3,1.5,5.9,2.3,8.9c1.7,6.7,3.5,13.7,5,20.6c3.3,14.9,6.4,30,9.4,44.7l1.2,6
				c1.3,6.1,2.5,12.2,3.7,18.3c1.4,6.8,2.8,13.9,4.2,20.8c4.3,20.4,8.3,40.4,10.7,60.8c0.1,0.9,0.4,1.8,1.8,2
				c1.4,0.2,2.9,0.4,4.3,0.6c2.7,0.4,5.6,0.8,8.4,1.1c0.6,0.1,1.2,0.1,1.8,0.1c3,0,5.9-0.8,8.7-1.6c0.8-0.2,1.7-0.5,2.5-0.7
				c1.5-0.4,3-0.8,4.5-1.5c0.8-0.4,1.8-1.3,2.1-2.3C158,240,158.1,238.4,158,236.9z"/>
			<g>
				<path class="st0" d="M156,235.4c0-0.2,0-0.5-0.1-0.7c-0.3-2.9-0.7-5.8-1.1-8.7c-1.3-10.7-2.6-21.5-3.7-32.2
					c-1-9.7-1.8-19.4-2.9-29.2c-1.1-10.1-2.3-20.2-3.6-30.2c-1.5-11.5-2.3-22.9-2.8-34.5c-0.3-8.3-0.7-16.7-1.5-24.9
					c-1.3-13-3-26-4.5-38.9c-0.1-0.8-0.2-1.8-0.6-2.5c-0.8-1.3-1.8-2.5-2.8-3.7c-2.6-3.1-5.2-6.1-7.9-9.1c-0.2-0.3-0.6-0.6-0.9-0.6
					c-2.3,0.3-4.6,0.6-7,0.9c0.1,0.7,0.2,1.3,0.3,1.8c1.4,8,2.9,16,4.1,24c1.5,9.9,2.9,19.9,4.2,29.9c1,7.2,1.9,14.3,2.7,21.5
					c0.8,6,1.3,12.1,2.2,18.1c1.5,10.3,3.1,20.7,3.2,31.1c0.2,13.8,0.5,27.7,2.4,41.4c0.4,3.2,0.9,6.4,1.3,9.6
					c0.6,4.4,1.3,8.8,2,13.1c1.1,6.8,2.6,13.6,3.7,20.5c0.7,4.1,1,8.3,1.5,12.7c3.2-0.9,6.4-1.7,9.5-2.5c0.4-0.1,0.9-0.3,1.1-0.6
					c0.4-0.5,1-1.1,1-1.7C156.2,238.6,156.1,237,156,235.4z M121.4,31.4c-0.8-0.8-1.5-3.9-1.2-5.9C121.2,26.5,121.9,30.4,121.4,31.4
					z M125.8,56c-0.3-0.5-0.5-0.9-0.6-1.2c-1-6.1-1.9-12.2-2.8-18.3c0-0.3,0-0.5,0.1-1.1C123.6,37.2,126.3,54.3,125.8,56z"/>
				<path class="st0" d="M50.1,20.2c-0.3,0-0.6,0.2-0.8,0.4c-3.2,3.7-6.3,7.3-9.4,11c-0.7,0.8-1.4,1.8-1.6,2.8c-0.5,1.9-0.7,4-0.9,6
					c-0.9,7.8-1.7,15.5-2.7,23.3C33,75.7,32.6,87.8,31.8,100c-0.5,8-0.8,16.1-1.6,24.1c-1.3,12.8-3.1,25.6-4.5,38.4
					c-1.2,10.6-2,21.1-3.1,31.7c-0.9,8.3-1.8,16.5-2.8,24.8c-0.5,4.9-1.1,9.8-1.6,14.6c-0.2,1.8-0.4,3.6-0.6,5.5
					c-0.2,2.2,0.2,2.8,2.3,3.5c2.1,0.7,4.3,1.1,6.4,1.7c1,0.3,2,0.5,3.1,0.8c0-0.5,0.1-0.9,0.1-1.2c0.5-4.7,0.9-9.3,1.6-14
					c1.7-11.3,4.6-22.5,6-33.9c0.1-1.1,0.3-2.2,0.3-3.3c0.6-7.2,1.6-14.3,2-21.4c0.5-7.6,0.3-15.2,0.7-22.8c0.4-7.5,1.1-15,1.9-22.4
					c0.6-5.9,1.6-11.7,2.4-17.5c0.6-4.6,0.9-9.3,1.5-14c1.2-9.7,2.5-19.5,3.9-29.2c1.5-10.5,3.1-21,4.8-31.5
					c0.6-4.1,1.5-8.3,2.3-12.5C54.6,20.8,52.4,20.5,50.1,20.2z M48.4,55.8c-0.3,0-0.5-0.1-0.8-0.2c0.9-6.7,1.9-13.3,3.2-20
					c0.2,0,0.4,0.1,0.7,0.1C50.5,42.4,49.4,49.1,48.4,55.8z M52.4,31.4c-0.5-1,0.2-4.8,1-5.8C53.9,26.9,53.3,30.5,52.4,31.4z"/>
				<path class="st0" d="M97.1,21.5V12c11.7-0.5,23.3-0.7,34.9-3.2c0.4,2.4,0.9,4.8,1.2,7.2c0.1,0.4-0.6,1.2-1.1,1.3
					c-2.8,0.7-5.7,1.5-8.5,1.8c-8.1,0.9-16.3,1.6-24.4,2.4C98.6,21.5,97.9,21.5,97.1,21.5"/>
				<path class="st0" d="M76.6,21.6c-3.8-0.2-7.5-0.3-11.2-0.7c-7.1-0.8-14.3-1.6-21.3-2.9c-4.9-0.9-3.7-0.9-3.1-4.7
					c0.2-1.5,0.5-2.9,0.8-4.5c11.5,2.5,23.1,2.7,34.9,3.1V21.6z"/>
				<path class="st0" d="M88.3,22.9v26c-4.1-2.4-5.9-5.1-5.5-8.7c0.5-4.8,0.2-9.7,0.2-14.5c0-0.9,0-1.8,0-2.8H88.3z"/>
				<rect x="80.4" y="12.1" class="st0" width="12.9" height="9.5"/>
				<path class="st0" d="M125.3,20.1c2.9-0.7,5.3-1.3,7.9-2c0.3,2.1,0.6,4.2,0.9,6.3c0.3,2.1,0.6,4.1,0.9,6.2
					c-0.1,0.1-0.2,0.1-0.3,0.2C131.7,27.3,128.6,23.8,125.3,20.1"/>
				<path class="st0" d="M40.5,18.2c2.6,0.6,5.1,1.2,7.9,2c-3.2,3.6-6.3,7.2-9.4,10.7c-0.1,0-0.2-0.1-0.4-0.1
					c0.3-2.1,0.6-4.2,0.9-6.3C39.9,22.4,40.2,20.3,40.5,18.2"/>
				<path class="st0" d="M94.6,12.1h1.1c0.1,0.2,0.2,0.3,0.2,0.4c0,2.7,0.1,5.4,0,8.2c0,0.4-0.5,0.7-0.8,1.1
					c-0.2-0.1-0.3-0.2-0.5-0.3V12.1z"/>
				<path class="st0" d="M77.8,12.1c0.4-0.1,0.5-0.1,0.7-0.1c0.2,0,0.4,0,0.6,0.1v9.3c-0.7,0.2-1.4,0.4-1.4-0.7
					C77.8,17.9,77.8,15.1,77.8,12.1"/>
				<path class="st1" d="M158,236.9c-0.2-2.2-0.5-4.5-0.8-6.7c-0.1-1-0.3-1.9-0.4-2.9c-0.2-1.9-0.5-3.8-0.7-5.7
					c-0.6-4.4-1.2-9-1.7-13.6c-0.5-4.1-0.8-8.2-1.2-12.2c-0.2-2.2-0.4-4.3-0.6-6.5l-0.6-6.2c-0.6-6.3-1.2-12.8-1.9-19.2
					c-0.2-1.4-0.3-2.9-0.5-4.3c-0.6-6.1-1.3-12.4-2.3-18.5c-2.1-13.5-3.3-27-3.6-40.2c-0.2-7.3-0.7-14.7-1.3-21.9l0-0.4
					c-0.4-5.4-1-10.8-1.6-16.1l-0.2-1.8c-0.9-7.6-1.7-14.4-2.5-20.8c-0.2-1.7-0.5-3.5-0.8-5.2c-0.3-2.2-0.7-4.4-0.9-6.6
					c-0.1-1.3-0.4-2.6-0.6-3.8c-0.5-2.6-0.9-5.1-0.6-7.8c0.3-1.8-0.3-3.8-0.8-5.6c-0.2-0.7-0.4-1.4-0.5-2c-0.2-0.8-0.5-1.3-1-1.6
					c-0.5-0.3-1.1-0.3-1.7,0c-0.9,0.3-1.9,0.5-2.9,0.6L128,8c-9.2,1.4-19.4,2.2-31.1,2.2c-10.7,0.1-20.6,0-30.2-0.3
					c-9.2-0.3-16.8-1.1-23.9-2.5c-1.9-0.4-2.6,0-3,1.9c-0.4,2-0.9,4.1-1.4,6.8c-0.1,0.4,0,0.9,0,1.3l0,0.2c0,0.3,0.1,0.6,0.1,0.9
					c0.1,0.5,0.2,0.9,0.1,1.3c-0.3,2.3-0.7,4.6-1.1,7c-0.6,3.9-1.3,8-1.8,12.1c-1.7,14.9-3.4,29.6-4.7,44.3
					c-0.5,6.1-0.8,12.3-1,18.3c-0.1,3.3-0.3,6.6-0.4,9.8l0,0.9c-0.2,4-0.4,8.2-0.9,12.3c-0.5,4.6-1.2,9.2-1.8,13.7
					c-0.7,5.5-1.5,11.2-2.1,16.7c-0.8,7.3-1.6,14.7-2.3,21.9c-0.6,5.6-1.1,11.2-1.7,16.8c-0.5,4.5-1,9.1-1.6,13.6
					c-0.7,5.9-1.4,12-2,18.1c-0.2,1.6-0.4,3.2-0.7,4.7c-0.5,3.3-1.1,6.8-0.7,10.3c0.1,1.2,0.5,2.9,2.4,3.6c0.9,0.4,1.9,0.6,2.8,0.9
					c0.8,0.2,1.6,0.5,2.4,0.7c8.7,3.1,17.5,1.7,25,0.2c0.6-0.1,1.5-0.7,1.7-1.4c0.3-1.6,0.5-3.2,0.7-4.7c0.1-1,0.3-2,0.4-3
					c0.5-3.1,1-6.3,1.5-9.5c1.1-7.1,2.2-14.5,3.6-21.7c4.5-22.4,9.2-45,13.8-67l1.8-8.6c3.5-16.6,7.2-34.1,11.8-55.2
					c0.6-2.8,1.4-5.7,2.2-8.4c0.2-0.9,0.5-1.8,0.7-2.7c0.7,3,1.5,5.9,2.3,8.9c1.7,6.7,3.5,13.7,5,20.6c3.3,14.9,6.4,30,9.4,44.7
					l1.2,6c1.3,6.1,2.5,12.2,3.7,18.3c1.4,6.8,2.8,13.9,4.2,20.8c4.3,20.4,8.3,40.4,10.7,60.8c0.1,0.9,0.4,1.8,1.8,2
					c1.4,0.2,2.9,0.4,4.3,0.6c2.7,0.4,5.6,0.8,8.4,1.1c0.6,0.1,1.2,0.1,1.8,0.1c3,0,5.9-0.8,8.7-1.6c0.8-0.2,1.7-0.5,2.5-0.7
					c1.5-0.4,3-0.8,4.5-1.5c0.8-0.4,1.8-1.3,2.1-2.3C158,240,158.1,238.4,158,236.9z M134.2,24.5c0.3,2.1,0.6,4.1,0.9,6.2
					c-0.1,0.1-0.2,0.1-0.3,0.2c-3.1-3.5-6.2-7.1-9.4-10.7c2.9-0.7,5.3-1.3,7.9-2C133.6,20.2,133.9,22.4,134.2,24.5z M132.2,17.3
					c-2.8,0.7-5.7,1.5-8.5,1.8c-8.1,0.9-16.3,1.6-24.4,2.4c-0.7,0.1-1.3,0-2.1,0V12c11.7-0.5,23.3-0.7,34.9-3.2
					c0.4,2.4,0.9,4.8,1.2,7.2C133.3,16.4,132.6,17.2,132.2,17.3z M123.8,20.2c0.3,0,0.7,0.3,0.9,0.6c2.6,3,5.3,6.1,7.9,9.1
					c1,1.2,2,2.4,2.8,3.7c0.4,0.7,0.5,1.6,0.6,2.5c1.5,13,3.2,25.9,4.5,38.9c0.8,8.3,1.2,16.6,1.5,24.9c0.5,11.5,1.3,23,2.8,34.5
					c1.3,10.1,2.5,20.1,3.6,30.2c1,9.7,1.8,19.4,2.8,29.2c1.1,10.8,2.4,21.5,3.7,32.2c0.4,3.1,0.8,6.3,1.2,9.4
					c0.2,1.6,0.2,3.2,0.1,4.7c0,0.6-0.6,1.2-1,1.7c-0.3,0.3-0.7,0.5-1.1,0.6c-3.1,0.8-6.3,1.7-9.5,2.5c-0.5-4.4-0.8-8.6-1.5-12.8
					c-1.1-6.8-2.5-13.6-3.7-20.5c-1.2-7.6-2.3-15.1-3.3-22.7c-1.8-13.7-2.2-27.6-2.4-41.4c-0.1-10.5-1.7-20.8-3.2-31.1
					c-0.9-6-1.4-12.1-2.2-18.1c-0.9-7.2-1.8-14.3-2.7-21.5c-1.4-10-2.7-19.9-4.2-29.8c-1.2-8-2.7-16-4.1-24
					c-0.1-0.6-0.2-1.1-0.3-1.8C119.2,20.8,121.5,20.5,123.8,20.2z M95.9,20.6c0,0.4-0.5,0.7-0.8,1.1c-0.2-0.1-0.3-0.2-0.5-0.3v-9.4
					h1.1c0.1,0.2,0.2,0.3,0.2,0.4C95.9,15.2,95.9,17.9,95.9,20.6z M83,25.7c0-0.9,0-1.8,0-2.8h5.3v26c-4.1-2.4-5.9-5.1-5.5-8.7
					C83.3,35.4,83,30.5,83,25.7z M80.4,21.6v-9.5h12.9v9.5H80.4z M79.2,12.1v9.3c-0.7,0.2-1.4,0.4-1.4-0.7c0-2.8,0-5.6,0-8.6
					c0.4-0.1,0.5-0.1,0.7-0.1C78.8,12,79,12.1,79.2,12.1z M17.7,239c0.7-6.7,1.4-13.4,2.2-20.1c0.9-8.3,1.9-16.5,2.8-24.8
					c1.1-10.6,1.9-21.2,3.1-31.7c1.4-12.8,3.2-25.5,4.5-38.4c0.8-8,1.1-16,1.6-24.1c0.7-12.1,1.2-24.3,2.8-36.4
					c1-7.7,1.8-15.5,2.7-23.2c0.2-2,0.4-4,0.9-6c0.2-1,1-2,1.6-2.8c3.1-3.7,6.3-7.4,9.4-11c0.2-0.2,0.6-0.4,0.8-0.4
					c2.3,0.3,4.5,0.6,6.9,0.9c-0.8,4.3-1.7,8.4-2.3,12.5c-1.6,10.5-3.3,21-4.8,31.5c-1.4,9.7-2.6,19.4-3.9,29.2
					c-0.6,4.7-0.9,9.3-1.5,14c-0.7,5.8-1.8,11.6-2.4,17.5c-0.8,7.5-1.5,15-1.9,22.5c-0.4,7.6-0.2,15.2-0.7,22.8
					c-0.4,7.2-1.4,14.3-2,21.4c-1.1,12.6-4.4,24.8-6.3,37.2c-0.7,4.6-1.1,9.3-1.6,14c0,0.3-0.1,0.7-0.1,1.2
					c-1.1-0.3-2.1-0.5-3.1-0.8c-2.1-0.5-4.3-1-6.4-1.7C17.9,241.9,17.5,241.3,17.7,239z M40.5,18.2c2.6,0.6,5.1,1.2,7.9,2
					c-3.2,3.6-6.3,7.2-9.4,10.7c-0.1,0-0.2-0.1-0.4-0.1c0.3-2.1,0.6-4.2,0.9-6.3C39.9,22.4,40.2,20.3,40.5,18.2z M44.1,18
					c-4.9-0.9-3.7-0.9-3.1-4.7c0.2-1.5,0.5-2.9,0.8-4.5c11.5,2.5,23.1,2.7,34.9,3.1v9.6c-3.8-0.2-7.5-0.3-11.2-0.7
					C58.3,20.1,51.1,19.3,44.1,18z M86.1,61.4l-0.1,0.3c-0.2,0.2-0.3,0.4-0.4,0.6c-1.4,4.9-3,9.8-4.1,14.8
					c-3.6,16.4-7.1,32.8-10.7,49.2c-2.2,10.4-4.6,20.8-6.7,31.3c-3.9,19.1-7.8,38.3-11.5,57.4c-1.3,6.9-2,14-3,21
					c-0.2,1.8-0.4,3.5-0.7,5.3c-0.4,2.5-0.4,2.5-3.5,2.8c0.2-1.5,0.3-3,0.5-4.5c0.6-3.6,1.2-7.2,1.8-10.8c0.1-0.6,0-1.1,0-1.7
					c-0.2,0-0.3,0-0.5,0c-0.1,0.3-0.3,0.6-0.3,1c-0.8,5.1-1.7,10.2-2.5,15.3c-0.1,0.9-0.4,1.3-1.4,1c0.4-3.2,0.8-6.3,1.2-9.5
					c-0.1,0-0.3-0.1-0.4-0.1c-0.2,0.4-0.5,0.8-0.6,1.2c-0.4,2.4-0.8,4.7-1.1,7.1c-0.2,1.3-0.7,1.9-2.1,2c-2.6,0.1-5.3,0.3-7.9,0.3
					c-1.8,0-1.8-0.2-1.7-2c0.8-11,3.2-21.8,5.1-32.6c1.4-7.7,2.3-15.5,3.4-23.3c1.9-14.4,1.8-28.9,2.4-43.3c0.3-7.7,1.5-15.3,2.3-23
					c0.8-6.8,1.6-13.5,2.4-20.2c0.8-6.6,1.6-13.2,2.4-19.8c1.3-9.5,2.5-19.1,3.9-28.6c1.6-10.4,3.4-20.9,5.1-31.2
					c8.3,0.5,16.2,1,24.4,1.5c0,3.2,0.1,6.6,0,9.9c-0.1,2.8-0.2,5.6-0.5,8.3c-0.3,2.4,0.6,4.3,2.2,6c1.1,1.1,2.5,2.1,3.7,3.2
					c0.4,0.4,0.7,1,0.8,1.6c0.2,1,0.2,2.1,0.3,3.1l0.7,0c0.1-0.7,0.4-1.4,0.4-2.2c-0.1-8.9-0.1-17.7-0.2-26.6c0-1.1,0-2.2,0-3.4
					c8.9-0.5,17.7-1,26.7-1.5c1.5,9.1,3.2,18.2,4.6,27.5c1.5,10,2.9,20.1,4.2,30.1c1.3,10.2,2.3,20.4,3.6,30.7
					c0.8,6.3,1.9,12.6,2.6,18.9c0.8,8,1.5,16,1.6,24.1c0.2,13,1.2,26,2.6,39c1.1,10.4,3.4,20.6,5.1,30.9c1.2,7,2,14,3,21
					c0.2,1.3-0.3,1.9-1.6,1.8c-2.9-0.1-5.8-0.2-8.7-0.5c-0.4,0-1.1-0.6-1.2-1.1c-0.4-1.8-0.5-3.6-0.8-5.4c-0.2-1.2-0.6-2.4-0.8-3.6
					c-0.2,0-0.4,0.1-0.6,0.1c0.4,3.2,0.8,6.3,1.2,9.5c-1,0.2-1.3,0-1.4-1c-0.8-5.1-1.6-10.2-2.5-15.3c-0.1-0.3-0.2-0.7-0.3-1
					c-0.2,0-0.3,0-0.5,0.1c0,0.6-0.1,1.2,0,1.8c0.7,4.1,1.4,8.2,2,12.3c0.1,0.9,0.2,1.8,0.2,2.7c-2.9,0-3.1-0.3-3.5-3.3
					c-1-7.5-1.8-15.1-3.1-22.6c-1.6-9.1-3.5-18.1-5.3-27.2c-3-15.2-6-30.3-9.2-45.5c-3.1-15-6.3-30-9.7-44.9
					c-2.5-11.2-5.2-22.4-7.9-33.5c-0.4-1.6-0.9-3.2-1.5-4.8c-0.2-0.5-0.8-1-1.3-1.1c-0.1,0-0.3,0.1-0.5,0.2L86.1,61.4z"/>
				<path class="st1" d="M82.3,62.9c-4.3,5-8.6,9.9-13,14.9c-0.1-0.1-0.3-0.2-0.4-0.3c0.2-0.4,0.2-0.9,0.5-1.3
					c4-4.5,7.9-8.9,11.9-13.4c0.1-0.2,0.4-0.2,0.6-0.3L82.3,62.9z"/>
				<path class="st1" d="M92,62.5c4.6,4.7,9.3,9.3,13.1,14.8c-0.1,0.1-0.2,0.3-0.3,0.4c-0.4-0.2-0.8-0.4-1.1-0.7
					c-3.8-4.3-7.6-8.7-11.4-13.1c-0.3-0.3-0.4-0.7-0.7-1C91.7,62.7,91.8,62.6,92,62.5"/>
				<path class="st1" d="M91.9,59.3c3.1,1,6.1,2,9,3.7c-0.1,0.2-0.2,0.4-0.3,0.7c-3-1.2-6-2.4-9-3.6C91.7,59.8,91.8,59.6,91.9,59.3"
					/>
				<path class="st1" d="M73.2,63.7c0.5-1.5,7.4-4.3,9-3.6C79.2,61.3,76.2,62.5,73.2,63.7"/>
				<path class="st1" d="M48.3,223.7c-0.3-2.7,0.5-5.2,1.3-8C50.3,216.9,49.4,222.6,48.3,223.7"/>
				<path class="st1" d="M124.1,216c0.9,2.5,1.7,5,1.5,7.9C124.6,223,123.4,217.3,124.1,216"/>
				<path class="st1" d="M122.5,35.4c1.1,1.8,3.9,18.9,3.3,20.6c-0.3-0.5-0.5-0.9-0.6-1.2c-1-6.1-1.9-12.2-2.8-18.3
					C122.3,36.3,122.4,36,122.5,35.4"/>
				<path class="st1" d="M120.2,25.5c1,1,1.7,4.8,1.2,5.9C120.6,30.6,119.9,27.5,120.2,25.5"/>
				<path class="st1" d="M47.6,55.6c0.9-6.7,1.9-13.3,3.2-20c0.2,0,0.5,0.1,0.7,0.1c-1,6.7-2.1,13.3-3.1,20
					C48.1,55.7,47.8,55.7,47.6,55.6"/>
				<path class="st1" d="M52.4,31.4c-0.5-0.9,0.2-4.8,1-5.8C53.9,26.9,53.3,30.5,52.4,31.4"/>
			</g>
		</g>
	</g>
</g>
</svg>
