<?xml version="1.0" encoding="utf-8"?>
<!-- Generator: Adobe Illustrator 27.5.0, SVG Export Plug-In . SVG Version: 6.00 Build 0)  -->
<svg version="1.1" id="Layer_1" xmlns="http://www.w3.org/2000/svg" xmlns:xlink="http://www.w3.org/1999/xlink" x="0px" y="0px"
	 viewBox="0 0 149.1 157.3" style="enable-background:new 0 0 149.1 157.3;" xml:space="preserve">
<style type="text/css">
	.st0{fill:url(#SVGID_1_);}
	.st1{fill:url(#SVGID_00000041286104379619131020000006765252804065628851_);}
	.st2{fill:url(#SVGID_00000029016571290266300550000014570019575128966074_);}
	.st3{fill:url(#SVGID_00000015319006024893527580000009004936960144827291_);}
	.st4{fill:url(#SVGID_00000063599734045688644520000010202448355619420075_);}
	.st5{fill:url(#SVGID_00000088826849248690879370000008532710364119335334_);}
	.st6{opacity:0.3;fill:#2F2F30;enable-background:new    ;}
	.st7{fill:#333334;}
</style>
<g>
	<g>
		
			<linearGradient id="SVGID_1_" gradientUnits="userSpaceOnUse" x1="3.5599" y1="110.33" x2="72.5672" y2="113.9895" gradientTransform="matrix(1 0 0 -1 0 160)">
			<stop  offset="0.1918" style="stop-color:#373738"/>
			<stop  offset="0.5902" style="stop-color:#333334"/>
			<stop  offset="1" style="stop-color:#2F2F30"/>
		</linearGradient>
		<path class="st0" d="M35.2,22.8c0,0-1.5,0.4-3.7,3.6S13.1,61.8,13.1,61.8s7.1,10.1,24.8,11.3l2.4-8C40.3,65.1,39.4,31.5,35.2,22.8
			z"/>
	</g>
	<g>
		
			<linearGradient id="SVGID_00000038384834944358989480000013095837198736611230_" gradientUnits="userSpaceOnUse" x1="-490.374" y1="110.3301" x2="-421.3666" y2="113.9896" gradientTransform="matrix(-1 0 0 -1 -339.3721 160)">
			<stop  offset="0.1918" style="stop-color:#373738"/>
			<stop  offset="0.5902" style="stop-color:#333334"/>
			<stop  offset="1" style="stop-color:#2F2F30"/>
		</linearGradient>
		<path style="fill:url(#SVGID_00000038384834944358989480000013095837198736611230_);" d="M119.3,22.8c0,0,1.5,0.4,3.7,3.6
			c2.2,3.1,18.5,35.4,18.5,35.4s-7.1,10.1-24.8,11.3l-2.4-8C114.2,65.1,115.1,31.5,119.3,22.8z"/>
	</g>
	
		<linearGradient id="SVGID_00000121245239290765422780000016982346314098597784_" gradientUnits="userSpaceOnUse" x1="75.3202" y1="180.268" x2="78.9797" y2="-14.4636" gradientTransform="matrix(1 0 0 -1 0 160)">
		<stop  offset="0" style="stop-color:#2F2F30"/>
		<stop  offset="0.1037" style="stop-color:#333334"/>
		<stop  offset="0.2732" style="stop-color:#373738"/>
		<stop  offset="0.7762" style="stop-color:#373738"/>
		<stop  offset="1" style="stop-color:#333334"/>
	</linearGradient>
	<path style="fill:url(#SVGID_00000121245239290765422780000016982346314098597784_);" d="M119.2,22.6l-28-11.5c0,0-4.8,3.8-14,3.4
		c-9.2,0.4-14.1-3.4-14.1-3.4l-28,11.5c0,0,4.8,37.7,4.8,56.8s-4.8,61.4-4.8,61.4c20,5,42,5.1,42,5.1s22.1-0.1,42-5.1
		c0,0-4.8-42.2-4.8-61.4S119.2,22.6,119.2,22.6z"/>
	
		<linearGradient id="SVGID_00000037667291838272929930000005394482625313229989_" gradientUnits="userSpaceOnUse" x1="28.0944" y1="14.6393" x2="125.3502" y2="14.6393" gradientTransform="matrix(1 0 0 -1 0 160)">
		<stop  offset="0" style="stop-color:#2F2F30"/>
		<stop  offset="0.1037" style="stop-color:#333334"/>
		<stop  offset="0.2724" style="stop-color:#393A3B"/>
		<stop  offset="0.724" style="stop-color:#393A3B"/>
		<stop  offset="0.914" style="stop-color:#333334"/>
		<stop  offset="1" style="stop-color:#2F2F30"/>
	</linearGradient>
	<path style="fill:url(#SVGID_00000037667291838272929930000005394482625313229989_);" d="M84.5,145.7c1.8-0.1,3.9-0.3,6-0.5
		c-0.1-0.1-0.2-0.2-0.4-0.1C88.1,145.3,86.3,145.6,84.5,145.7z"/>
	
		<linearGradient id="SVGID_00000147904941891033795450000013121408120542880399_" gradientUnits="userSpaceOnUse" x1="76.3576" y1="133.6069" x2="77.7951" y2="155.5621" gradientTransform="matrix(1 0 0 -1 0 160)">
		<stop  offset="0.1918" style="stop-color:#373738"/>
		<stop  offset="0.5902" style="stop-color:#333334"/>
		<stop  offset="1" style="stop-color:#2F2F30"/>
	</linearGradient>
	<path style="fill:url(#SVGID_00000147904941891033795450000013121408120542880399_);" d="M91.4,10.9c0,0-2.3,11.7-14.1,11.9
		c-11.8-0.3-14.2-11.9-14.2-11.9l-3.3,1.3C63,27.1,77.3,26.2,77.3,26.2S91.5,27,94.8,12.3L91.4,10.9z"/>
	
		<radialGradient id="SVGID_00000034075326588601595400000001420277114537918080_" cx="77.1604" cy="157.0316" r="20.4765" gradientTransform="matrix(1 0 0 -1 0 160)" gradientUnits="userSpaceOnUse">
		<stop  offset="0.5149" style="stop-color:#393A3B"/>
		<stop  offset="0.8681" style="stop-color:#333334"/>
		<stop  offset="1" style="stop-color:#2F2F30"/>
	</radialGradient>
	<path style="fill:url(#SVGID_00000034075326588601595400000001420277114537918080_);" d="M91.3,11.1c0,0-4.8,3.8-14,3.4
		c-9.2,0.4-14.1-3.4-14.1-3.4l0,0c0.4,1.4,3,11.5,14.1,11.7C88.2,22.6,91,12.5,91.3,11.1L91.3,11.1z"/>
	<path class="st6" d="M59.8,12.3c0.2,0.4,0.3,1,0.4,1.4c0.2,0.5,0.3,1,0.4,1.4c0.2,0.4,0.4,0.9,0.6,1.3c0.2,0.4,0.4,0.9,0.7,1.3
		c0.3,0.4,0.5,0.9,0.8,1.3l0.4,0.6l0.4,0.5c0.2,0.2,0.4,0.4,0.5,0.5c0.2,0.2,0.4,0.4,0.5,0.5l0.5,0.5l0.6,0.4
		c0.4,0.3,0.8,0.6,1.3,0.8c0.4,0.3,0.9,0.5,1.3,0.7c0.4,0.3,0.9,0.4,1.3,0.6c0.4,0.2,0.9,0.4,1.4,0.5c1,0.3,2,0.5,3,0.6
		c0.5,0.1,1,0.1,1.5,0.2c0.5,0,1,0.1,1.5,0l0,0l0,0c0.4,0,1,0,1.5,0s1-0.1,1.5-0.2c1-0.2,2-0.4,3-0.6c0.4-0.2,1-0.4,1.4-0.5
		c0.4-0.2,0.9-0.4,1.3-0.6c0.4-0.3,0.9-0.4,1.3-0.7c0.4-0.3,0.8-0.5,1.3-0.8l0.6-0.4l0.5-0.5c0.2-0.2,0.4-0.4,0.5-0.5
		c0.2-0.2,0.4-0.4,0.5-0.5l0.4-0.5l0.4-0.6c0.3-0.4,0.5-0.8,0.8-1.3s0.5-0.9,0.7-1.3c0.3-0.4,0.4-0.9,0.6-1.3c0.2-0.4,0.4-1,0.5-1.4
		c0.2-0.4,0.3-1,0.4-1.4c-0.1,0.5-0.2,1-0.4,1.5c-0.4,0.4-0.5,1-0.8,1.4c-0.2,0.4-0.4,1-0.5,1.4c-0.2,0.4-0.4,0.9-0.7,1.3
		c-1,1.8-2.3,3.4-3.9,4.7c-0.4,0.4-0.8,0.6-1.3,0.9c-0.4,0.3-0.9,0.5-1.3,0.8s-0.9,0.4-1.4,0.6c-0.4,0.2-1,0.4-1.4,0.5
		c-1,0.3-2,0.5-3,0.7c-0.5,0.1-1,0.2-1.5,0.2s-1,0.1-1.5,0l0,0c-0.5,0-1.1,0-1.5,0c-0.5,0-1-0.1-1.5-0.2c-1-0.2-2.1-0.4-3-0.7
		c-0.4-0.2-1-0.4-1.4-0.5c-0.4-0.2-1-0.4-1.4-0.6c-0.4-0.3-0.9-0.4-1.3-0.8c-0.4-0.3-0.8-0.6-1.3-0.9c-1.6-1.3-3-2.9-3.9-4.7
		c-0.3-0.4-0.4-0.9-0.7-1.3c-0.2-0.4-0.4-1-0.5-1.4s-0.3-1-0.4-1.4C60,13.3,59.9,12.8,59.8,12.3z"/>
	<path class="st6" d="M91.4,10.9c0,0-0.1,0.6-0.4,1.7c-0.4,1.1-0.9,2.5-2,4.1c-1,1.6-2.5,3.3-4.6,4.5c-1,0.6-2.2,1.1-3.4,1.4
		c-1.2,0.4-2.5,0.5-3.8,0.5c-1.3,0-2.5-0.2-3.8-0.5c-1.2-0.4-2.3-0.8-3.4-1.4c-2.1-1.2-3.6-2.9-4.6-4.5c-1.1-1.6-1.6-3-2-4.1
		c-0.4-1.1-0.4-1.7-0.4-1.7s0.2,0.6,0.5,1.6s1.1,2.4,2.1,3.9c0.5,0.7,1.2,1.5,2,2.2c0.8,0.7,1.7,1.4,2.7,2c1,0.5,2.1,1,3.3,1.3
		c1.2,0.3,2.4,0.4,3.6,0.4c1.3,0,2.4-0.2,3.6-0.4s2.2-0.7,3.3-1.3c1-0.5,1.9-1.3,2.7-2c0.8-0.7,1.4-1.5,2-2.2c1.1-1.5,1.7-3,2.1-3.9
		C91.2,11.6,91.4,10.9,91.4,10.9z"/>
	<path class="st7" d="M77.3,146.3L77.3,146.3c-0.2,0-22.3-0.2-42.1-5.1c-0.1,0-0.2-0.2-0.2-0.3c0.1-0.4,4.8-42.5,4.8-61.4
		c0-3-0.1-6.6-0.4-10.8l-1.3,4.5c0,0.1-0.2,0.2-0.3,0.2c-17.8-1.2-25-11.4-25-11.5c-0.1-0.1-0.1-0.2,0-0.3
		c0.6-1.3,16.4-32.4,18.5-35.4c2.2-3.1,3.8-3.7,3.9-3.7L63.1,11c0.1,0,0.2,0,0.3,0s4.8,3.7,13.9,3.3c0.4,0,0.8,0,1.2,0
		c8.3,0,12.6-3.3,12.7-3.4c0.1-0.1,0.2-0.1,0.3,0l28,11.5c0,0,1.6,0.5,3.8,3.7c2.2,3.1,17.8,34.2,18.5,35.4c0,0.1,0,0.2,0,0.3
		c-0.1,0.1-7.4,10.2-25,11.4c-0.1,0-0.3-0.1-0.3-0.2l-1.3-4.5c-0.3,4.2-0.4,7.9-0.4,10.8c0,18.9,4.8,61,4.8,61.4
		c0,0.1-0.1,0.3-0.2,0.3C99.5,146.2,77.5,146.3,77.3,146.3z M35.5,140.8c19.6,4.9,41.4,5.1,41.7,5.1s22.1-0.2,41.7-5.1
		c-0.4-3.4-4.8-42.9-4.8-61.2c0-3.3,0.2-7.5,0.4-12.4c0-0.1,0.1-0.3,0.3-0.3c0.1,0,0.3,0.1,0.3,0.2l1.7,5.6
		c16.2-1.2,23.5-9.9,24.3-11c-1.2-2.3-16.3-32.3-18.4-35.2s-3.5-3.5-3.6-3.5L91.4,11.6c-0.8,0.5-5.6,3.6-14.1,3.3
		c-0.4,0-0.7,0-1.2,0c-7.8,0-12.2-2.8-13-3.4L35.3,22.9c0,0-1.5,0.5-3.6,3.5c-2,3-17.1,32.9-18.4,35.2c0.9,1.2,8.1,10,24.3,11
		l1.7-5.6c0-0.1,0.2-0.2,0.3-0.2s0.2,0.1,0.3,0.3c0.3,4.8,0.4,9,0.4,12.4C40.4,97.8,35.9,137.4,35.5,140.8z"/>
</g>
</svg>
